<svg version="1.1" id="Layer_1" xmlns="http://www.w3.org/2000/svg" xmlns:xlink="http://www.w3.org/1999/xlink" x="0px" y="0px"
	 width="100%" viewBox="0 0 1024 1024" enable-background="new 0 0 1024 1024" xml:space="preserve">
<path fill="#000000" opacity="1.000000" stroke="none" 
	d="
M171.838089,397.008850 
	C191.268372,405.226685 205.820129,419.060211 219.323425,434.207397 
	C236.158691,453.092133 249.216034,474.607971 262.338989,496.080231 
	C267.226166,504.076874 268.209656,504.185944 273.317261,496.509827 
	C283.528564,481.163544 289.300140,464.402588 288.788666,445.734222 
	C288.194427,424.044067 272.878754,407.266174 250.087662,403.288177 
	C244.478363,402.309113 238.853592,401.997101 233.187363,401.916748 
	C231.586502,401.894043 229.824158,402.396362 228.144684,400.575836 
	C230.175262,396.937073 233.885010,395.429077 237.408829,393.927734 
	C262.801941,383.108734 306.259613,386.147339 328.260376,423.230774 
	C338.827332,441.041962 342.678772,460.493805 340.235138,480.834930 
	C333.971649,532.972656 317.589172,581.984619 293.084259,628.336914 
	C290.274933,633.650879 286.655212,638.475830 282.620880,642.929138 
	C275.722534,650.544067 268.755981,650.197510 262.740234,641.931641 
	C255.687515,632.240723 251.915604,620.961487 247.671921,609.939453 
	C236.487335,580.890015 226.314621,551.402527 209.992844,524.620667 
	C195.877335,501.458984 178.679077,481.486572 153.419922,469.861023 
	C144.128357,465.584564 134.486526,462.564789 124.162064,462.085388 
	C105.339508,461.211456 93.058212,468.740112 85.421143,485.932220 
	C82.978104,491.431854 81.251160,497.156464 79.879829,503.013458 
	C79.485893,504.695984 79.765831,506.722900 78.122368,508.015686 
	C76.387474,507.942261 76.368858,506.508698 76.288139,505.491150 
	C74.625069,484.526733 73.224510,463.579773 80.885277,443.293640 
	C89.253197,421.134827 102.722565,403.656372 125.654625,395.153778 
	C141.078690,389.434906 156.407074,390.877899 171.838089,397.008850 
M165.172501,410.276215 
	C146.343567,402.633698 127.297623,403.475067 117.952103,413.102325 
	C136.526657,406.630096 154.080933,409.003876 171.854477,413.560181 
	C169.857849,412.556427 167.861237,411.552673 165.172501,410.276215 
z"/>
<path fill="#000000" opacity="1.000000" stroke="none" 
	d="
M630.609131,597.655396 
	C612.055908,612.234070 583.022339,613.418152 566.427429,600.468628 
	C565.378479,599.650085 564.368347,598.775391 563.392456,597.870544 
	C545.836975,581.592468 544.245605,535.072693 579.713013,523.393250 
	C588.507446,520.497192 597.451843,518.889832 606.685059,518.803894 
	C615.849609,518.718567 625.016846,518.534973 634.178284,518.683350 
	C637.876953,518.743286 639.450073,517.227173 639.359070,513.757751 
	C639.202026,507.768005 639.047119,501.750732 636.996948,496.026642 
	C634.062195,487.832581 626.890259,483.677643 617.074097,484.336853 
	C606.681824,485.034760 601.518860,489.012390 599.296387,498.033081 
	C597.623657,504.822327 597.627747,504.744690 590.449890,504.368042 
	C581.636108,503.905548 572.815247,503.575470 563.996399,503.214813 
	C558.197510,502.977692 557.697998,502.326508 559.248718,496.575867 
	C563.227234,481.821960 571.887878,470.816986 586.185608,465.169189 
	C607.800964,456.630707 629.804749,455.807159 651.359924,465.126038 
	C667.289001,472.012604 675.486938,485.246979 677.177612,502.204132 
	C679.148010,521.966370 677.605347,541.829956 677.989990,561.644470 
	C678.067505,565.640625 677.980469,569.670959 678.477966,573.621460 
	C679.437927,581.243713 682.551941,583.868958 689.927795,583.900146 
	C697.950317,583.933960 697.950317,583.933960 697.985962,592.128113 
	C698.044739,605.637817 698.047546,605.657104 684.486938,607.639709 
	C678.692444,608.486877 672.887329,608.505432 667.052673,607.879028 
	C655.284424,606.615540 648.530762,599.765564 645.369568,588.781189 
	C644.869507,587.043640 644.345764,585.312866 643.677124,583.051880 
	C638.974976,587.911255 636.001526,593.656738 630.609131,597.655396 
M593.793091,551.507080 
	C592.421570,554.416504 591.715027,557.596191 591.625732,560.694397 
	C591.243713,573.950562 596.387390,583.375793 611.758362,581.763367 
	C628.279907,580.030273 642.758423,559.736511 639.187073,543.503113 
	C638.644531,541.037048 637.416077,540.234314 635.069641,540.231262 
	C626.243591,540.219788 617.397217,539.995728 608.662842,541.498718 
	C602.580994,542.545349 597.091248,544.786072 593.793091,551.507080 
z"/>
<path fill="#000000" opacity="1.000000" stroke="none" 
	d="
M119.965508,622.981079 
	C98.466133,592.290161 85.743355,558.674377 83.322327,521.597046 
	C82.411591,507.649414 84.803696,493.798462 94.716156,482.804138 
	C106.090912,470.187897 120.683571,468.713959 136.064102,472.758850 
	C165.647812,480.539001 187.481537,498.525391 202.574539,524.905029 
	C218.693787,553.078369 230.581528,583.046997 240.065811,614.015869 
	C240.432266,615.212463 241.133865,616.481018 240.354507,618.225891 
	C237.832687,616.969116 237.524536,614.384949 236.639877,612.330505 
	C227.128784,590.243652 216.233185,568.931396 201.558853,549.753601 
	C197.099335,543.925415 192.287369,538.388367 185.678009,534.787659 
	C177.761658,530.474976 171.868591,531.867126 166.910431,539.510254 
	C161.909424,547.219543 159.931503,556.039001 158.368164,564.893860 
	C154.868454,584.716187 156.026962,604.687134 156.856873,624.640442 
	C157.140503,631.459900 157.154327,638.290283 157.379822,645.112671 
	C157.498749,648.711121 155.822006,649.336365 152.676392,648.517761 
	C140.445023,645.334839 131.789322,637.185791 123.872345,627.989746 
	C122.570236,626.477295 121.413521,624.839600 119.965508,622.981079 
M103.801079,488.933777 
	C103.906563,489.202942 103.986778,489.487732 104.136452,489.729553 
	C104.171127,489.785553 104.492073,489.752838 104.598938,489.662964 
	C109.752182,485.329559 115.631050,482.678284 123.639320,482.352844 
	C114.520920,479.634125 108.988922,481.590485 103.801079,488.933777 
z"/>
<path fill="#000000" opacity="1.000000" stroke="none" 
	d="
M443.531372,461.687744 
	C446.802124,461.963226 447.194153,464.304260 447.828918,466.323303 
	C457.812439,498.076385 468.254761,529.688599 477.177307,561.768188 
	C477.973938,564.632324 478.871948,567.468140 479.903687,570.922546 
	C482.312164,568.606140 482.629730,565.951172 483.345398,563.572205 
	C493.080048,531.213440 503.889038,499.201050 514.291504,467.057312 
	C515.575562,463.089600 517.403625,461.446838 521.697144,461.577881 
	C531.182983,461.867432 540.684265,461.629822 550.179199,461.649170 
	C556.113281,461.661224 556.459534,462.157227 554.457397,467.577209 
	C541.247925,503.336273 528.020386,539.088623 514.821899,574.851746 
	C511.479340,583.908875 508.131561,592.966125 504.968567,602.086548 
	C503.758606,605.575439 501.749451,607.116516 497.984802,607.067627 
	C486.825958,606.922424 475.654602,606.753174 464.507172,607.140808 
	C459.276276,607.322632 456.885040,605.476013 455.159210,600.574463 
	C441.668549,562.260071 427.911377,524.039490 414.226471,485.793488 
	C412.207214,480.150238 410.078552,474.545410 408.118774,468.881897 
	C407.428650,466.887390 406.212372,464.935913 407.071198,461.996033 
	C418.937866,461.162109 431.021606,461.855164 443.531372,461.687744 
z"/>
<path fill="#000000" opacity="1.000000" stroke="none" 
	d="
M739.906494,566.000000 
	C739.914307,578.158691 739.827515,589.818604 739.981689,601.475403 
	C740.034973,605.502441 738.604675,607.173218 734.455139,607.091431 
	C724.965332,606.904297 715.467285,606.916443 705.976807,607.083374 
	C701.998535,607.153381 700.472595,605.958435 700.483215,601.660034 
	C700.636047,539.536316 700.617065,477.412079 700.643616,415.287994 
	C700.646606,408.204926 700.715027,408.104797 707.938354,408.061584 
	C716.765320,408.008789 725.594604,408.138733 734.419373,407.986481 
	C738.153748,407.922058 739.646362,409.024475 739.644470,413.113281 
	C739.622681,458.912201 739.790039,504.711212 739.903076,550.510193 
	C739.915405,555.506775 739.905945,560.503418 739.906494,566.000000 
z"/>
<path fill="#000000" opacity="1.000000" stroke="none" 
	d="
M365.348572,607.014648 
	C361.964081,606.973572 360.735504,605.469543 360.774872,602.590149 
	C360.840851,597.759155 360.759247,592.926270 360.760651,588.094177 
	C360.772064,548.103943 360.785583,508.113770 360.805817,468.123566 
	C360.809204,461.458649 360.825134,461.540466 367.399261,461.579407 
	C376.395935,461.632721 385.398956,461.720062 394.388031,461.437073 
	C398.123505,461.319489 399.404449,462.508453 399.398224,466.214905 
	C399.322205,511.536987 399.311310,556.859314 399.409027,602.181335 
	C399.417358,606.048340 397.725098,607.106628 394.306366,607.079346 
	C384.809204,607.003479 375.311188,607.038025 365.348572,607.014648 
z"/>
<path fill="#000000" opacity="1.000000" stroke="none" 
	d="
M802.402649,547.000122 
	C802.401917,565.312683 802.259460,583.127136 802.495056,600.936523 
	C802.557007,605.615845 800.854858,607.108337 796.425842,607.018188 
	C787.440002,606.835083 778.446716,606.869080 769.459106,606.998474 
	C765.444580,607.056274 763.860413,605.518311 763.869812,601.395386 
	C763.971069,556.780945 763.987305,512.166199 763.896484,467.551758 
	C763.887146,462.985382 765.531921,461.462616 770.077271,461.606232 
	C779.057251,461.889954 788.057861,461.825226 797.040894,461.576782 
	C801.225464,461.461090 802.487427,463.010681 802.466797,467.092957 
	C802.333008,493.561401 802.400635,520.030884 802.402649,547.000122 
z"/>
<path fill="#000000" opacity="1.000000" stroke="none" 
	d="
M802.403564,419.208801 
	C802.401428,423.998657 802.309448,428.317841 802.427673,432.631287 
	C802.507080,435.527100 801.362305,437.006378 798.409973,437.002441 
	C788.282532,436.988892 778.155151,436.994598 768.027710,436.982544 
	C765.082214,436.979034 763.922852,435.352661 763.945007,432.546997 
	C763.997437,425.906616 764.020996,419.265656 763.998596,412.625122 
	C763.988037,409.474091 765.612305,408.104645 768.610779,408.095978 
	C778.571777,408.067139 788.532898,408.065979 798.493713,408.014740 
	C801.783813,407.997833 802.864868,409.702240 802.593750,412.765259 
	C802.418457,414.745514 802.459290,416.744873 802.403564,419.208801 
z"/>
<path fill="#000000" opacity="1.000000" stroke="none" 
	d="
M399.358337,425.971985 
	C399.128967,437.739075 401.191498,437.026855 388.581421,437.065430 
	C381.106445,437.088287 373.629425,436.982025 366.157196,437.129669 
	C362.466034,437.202606 360.609131,436.063873 360.750671,432.012360 
	C360.970886,425.707672 360.932404,419.386993 360.774872,413.078796 
	C360.686493,409.539673 361.903992,407.888031 365.629486,407.934875 
	C375.262390,408.055939 384.898651,408.047607 394.531799,407.936096 
	C398.187531,407.893799 399.580170,409.397583 399.398224,413.021362 
	C399.190247,417.163574 399.355103,421.324493 399.358337,425.971985 
z"/>
<path fill="#000000" opacity="1.000000" stroke="none" 
	d="
M442.158630,638.141846 
	C442.102631,641.493896 442.099091,644.487244 441.979858,647.476013 
	C441.922302,648.918091 441.348450,650.149475 439.603821,650.021301 
	C438.125183,649.912598 437.749054,648.732483 437.737396,647.513916 
	C437.680206,641.529602 437.661621,635.544678 437.669678,629.559998 
	C437.671448,628.239258 437.636444,626.752563 439.204407,626.199341 
	C440.926544,625.591797 442.050934,626.668274 442.963654,627.925842 
	C445.974701,632.074646 448.198242,636.781189 452.754944,641.619141 
	C452.754944,637.026184 452.708130,633.527161 452.775879,630.030396 
	C452.806915,628.430115 452.528992,626.294006 454.867554,626.198181 
	C457.241028,626.100952 457.158600,628.223694 457.175598,629.842651 
	C457.234802,635.494934 457.214020,641.148499 457.174377,646.801208 
	C457.163879,648.300598 457.135895,649.902466 455.145050,650.282654 
	C453.386200,650.618591 452.345642,649.592285 451.468719,648.285828 
	C448.641571,644.073975 445.815369,639.861450 442.450592,634.847107 
	C442.283783,636.551880 442.223633,637.166565 442.158630,638.141846 
z"/>
<path fill="#000000" opacity="1.000000" stroke="none" 
	d="
M725.893311,641.109497 
	C724.477600,639.082336 723.256775,637.351013 722.036011,635.619690 
	C721.710266,635.666748 721.384583,635.713806 721.058838,635.760925 
	C721.058838,639.485046 721.111633,643.210327 721.033447,646.932861 
	C721.001221,648.465515 720.678467,650.129578 718.614563,649.984863 
	C716.828857,649.859558 716.779358,648.268616 716.768677,646.956482 
	C716.721313,641.138794 716.738159,635.320557 716.750977,629.502502 
	C716.753967,628.142761 716.860107,626.692688 718.385437,626.185303 
	C720.115723,625.609802 721.199524,626.757385 722.076965,628.045410 
	C724.957764,632.274719 727.814880,636.520203 731.825928,640.600281 
	C731.825928,637.052002 731.774231,633.502686 731.849182,629.955994 
	C731.883362,628.338745 731.763184,626.191345 734.111572,626.272766 
	C736.428223,626.353210 736.174988,628.499451 736.188477,630.110352 
	C736.234558,635.595764 736.223816,641.081848 736.193481,646.567444 
	C736.186218,647.887573 736.221802,649.381714 734.703796,649.971802 
	C733.028442,650.622925 731.815918,649.682922 730.896423,648.384521 
	C729.263916,646.079224 727.687866,643.733887 725.893311,641.109497 
z"/>
<path fill="#000000" opacity="1.000000" stroke="none" 
	d="
M375.904541,649.177856 
	C371.779541,651.252380 367.751343,650.289062 363.814728,650.352173 
	C361.763153,650.385071 360.785156,649.232666 360.779510,647.258911 
	C360.761993,641.129211 360.762115,634.999207 360.797882,628.869629 
	C360.806274,627.430542 361.441833,626.426636 362.942322,625.908813 
	C368.666321,623.933594 377.301880,626.621582 379.841766,631.247864 
	C383.218384,637.398315 381.803070,644.391907 375.904541,649.177856 
M375.241333,632.465942 
	C374.746643,632.026733 374.308075,631.492065 373.748596,631.162903 
	C367.747162,627.631714 365.230225,628.996155 365.195343,635.786621 
	C365.182495,638.281189 365.267639,640.777039 365.219147,643.270508 
	C365.168427,645.879883 366.498688,646.702393 368.949249,646.708435 
	C375.656738,646.724854 378.354248,641.321960 375.241333,632.465942 
z"/>
<path fill="#000000" opacity="1.000000" stroke="none" 
	d="
M517.060059,649.242920 
	C513.843201,650.951416 512.483704,650.085571 513.580017,646.878784 
	C515.671631,640.760681 517.977783,634.715210 520.248718,628.659790 
	C520.780823,627.240967 521.534607,625.893616 523.388245,625.940308 
	C524.705139,625.973450 525.601929,626.748108 526.033569,627.886353 
	C528.719055,634.968323 531.762573,641.932312 533.674561,649.192810 
	C531.274597,651.035583 530.173584,649.872803 528.964233,648.196411 
	C525.571106,643.492737 520.388184,643.861267 517.060059,649.242920 
M522.986633,634.679749 
	C521.896973,636.338013 520.976013,638.049561 521.192627,640.153625 
	C522.638245,641.124268 523.966736,641.053467 525.530518,639.776062 
	C525.287170,637.959045 524.933899,636.091370 522.986633,634.679749 
z"/>
<path fill="#000000" opacity="1.000000" stroke="none" 
	d="
M406.113708,643.902283 
	C406.739838,647.483521 409.302429,646.502808 411.301178,646.762573 
	C413.266510,647.018066 415.732300,645.904358 417.251770,649.579529 
	C412.288391,650.941528 407.504547,650.636414 402.766541,649.910767 
	C401.283081,649.683594 401.200623,647.892639 401.181335,646.573242 
	C401.101196,641.100098 401.131653,635.625305 401.042145,630.152405 
	C400.991119,627.028870 402.340912,625.565002 405.535980,625.712463 
	C408.683014,625.857666 411.840515,625.768738 414.989075,625.893005 
	C416.016785,625.933533 416.944672,626.458740 416.924500,627.718994 
	C416.903870,629.007446 415.937164,629.359131 414.900208,629.406128 
	C413.410431,629.473694 411.914490,629.423523 410.421600,629.399658 
	C408.109528,629.362793 405.998871,629.493408 406.077271,632.690979 
	C406.144836,635.446838 407.890472,635.894653 410.099609,635.901428 
	C411.259186,635.905029 412.429077,635.931580 413.574860,636.089294 
	C414.760040,636.252319 415.960785,636.649841 415.904449,638.155212 
	C415.849609,639.620850 414.683411,640.010315 413.469513,640.110901 
	C412.148438,640.220276 410.817108,640.255554 409.490997,640.243225 
	C407.270355,640.222595 406.037750,641.173401 406.113708,643.902283 
z"/>
<path fill="#000000" opacity="1.000000" stroke="none" 
	d="
M629.831055,625.847656 
	C632.268677,626.760071 634.005249,628.006226 635.175293,629.911438 
	C635.878479,631.056396 636.600464,632.387634 635.248596,633.483215 
	C633.948303,634.537048 632.683655,633.881653 631.803345,632.742615 
	C630.334045,630.841553 628.799744,629.261047 626.118042,629.292542 
	C622.466125,629.335388 620.240723,631.036194 619.191467,634.518860 
	C617.805115,639.120300 619.035156,644.284790 622.268005,646.193909 
	C625.583923,648.152100 628.617126,647.667847 631.126587,644.648560 
	C632.224731,643.327209 633.570435,641.753723 635.222656,643.165039 
	C637.188049,644.843933 635.375000,646.548767 634.276428,647.841919 
	C630.415405,652.386780 621.982361,652.354431 617.690002,647.896851 
	C613.643250,643.694092 612.842529,636.632996 615.798096,631.213440 
	C618.374268,626.489624 623.092163,624.601868 629.831055,625.847656 
z"/>
<path fill="#000000" opacity="1.000000" stroke="none" 
	d="
M796.826172,625.880798 
	C799.238708,626.806213 801.118469,627.846436 802.270020,629.822754 
	C802.947754,630.985779 803.725586,632.299255 802.408997,633.415222 
	C801.089966,634.533325 799.865295,633.703186 798.973633,632.631958 
	C797.555969,630.928894 796.096313,629.419434 793.684814,629.295227 
	C790.033691,629.107117 787.411804,630.681702 786.569641,634.200562 
	C785.544861,638.482422 785.087158,642.990417 789.260498,646.037170 
	C792.386047,648.319031 795.550049,647.699829 798.191589,644.874512 
	C799.439636,643.539612 800.800659,641.492249 802.574402,643.489380 
	C804.061646,645.163879 802.367676,646.917358 801.101440,648.216248 
	C796.758728,652.671082 788.230652,652.026245 784.175842,646.999207 
	C780.947754,642.997070 780.442444,635.552246 783.084900,630.927368 
	C785.631409,626.470337 790.206970,624.705139 796.826172,625.880798 
z"/>
<path fill="#000000" opacity="1.000000" stroke="none" 
	d="
M494.201569,627.921631 
	C487.435150,628.833374 486.988708,633.050903 487.857452,638.455383 
	C488.298950,641.202087 487.933319,644.096008 487.775055,646.914551 
	C487.691589,648.400574 487.418732,650.127686 485.393188,650.095764 
	C483.398438,650.064453 483.091187,648.379028 483.071899,646.866943 
	C483.010345,642.047546 483.083008,637.226501 483.074097,632.406128 
	C483.072601,631.610291 482.921661,630.814697 482.864044,630.254700 
	C482.451019,629.949585 482.323853,629.846008 482.187531,629.756287 
	C480.516846,628.655945 476.840851,630.807861 476.920898,627.788696 
	C477.008148,624.498352 480.630646,625.607544 482.587494,625.851074 
	C486.474976,626.334900 490.860291,623.766541 494.201569,627.921631 
z"/>
<path fill="#000000" opacity="1.000000" stroke="none" 
	d="
M660.736206,628.740051 
	C660.850525,633.325195 661.190002,637.513794 660.830994,641.641663 
	C660.487976,645.585632 661.666870,647.159241 665.721252,646.833435 
	C667.611450,646.681519 670.228271,645.838257 671.188660,649.596130 
	C666.659729,651.110657 662.134827,650.493286 657.672485,649.929321 
	C656.412842,649.770203 656.127258,648.226074 656.119080,647.062927 
	C656.076843,641.070618 656.081543,635.077271 656.158142,629.085388 
	C656.172852,627.930420 656.537537,626.664185 657.841980,626.271240 
	C659.554260,625.755493 660.213318,626.947937 660.736206,628.740051 
z"/>
<path fill="#000000" opacity="1.000000" stroke="none" 
	d="
M553.709839,638.992432 
	C553.712524,636.015259 553.602539,633.524414 553.757202,631.050110 
	C553.869080,629.258728 552.991394,626.343323 555.916931,626.459229 
	C558.556885,626.563782 557.997864,629.411743 558.072754,631.272583 
	C558.212646,634.744690 558.329285,638.238403 558.098145,641.699219 
	C557.835938,645.625671 559.401306,647.117737 563.283203,646.807983 
	C565.201477,646.654907 567.619568,646.100769 568.890686,649.508667 
	C564.296936,651.085266 559.941528,650.452637 555.657654,650.045044 
	C554.078064,649.894836 553.833801,648.299866 553.797485,646.935669 
	C553.731262,644.453369 553.735657,641.969238 553.709839,638.992432 
z"/>
<path fill="#000000" opacity="1.000000" stroke="none" 
	d="
M694.203369,650.062805 
	C692.038025,650.150208 691.576416,648.996460 691.540283,647.529297 
	C691.397766,641.733948 691.200623,635.938171 691.191956,630.142334 
	C691.189392,628.428467 691.089905,626.030701 693.761230,626.206848 
	C695.918823,626.349060 696.090759,628.481628 695.959229,630.069519 
	C695.409668,636.699036 697.715942,643.528137 694.203369,650.062805 
z"/>
<path fill="#000000" opacity="1.000000" stroke="none" 
	d="
M756.923340,646.628540 
	C756.896667,640.679993 756.865967,635.194397 756.914246,629.709412 
	C756.927246,628.229004 756.949646,626.369080 758.914673,626.244019 
	C761.377625,626.087219 761.213684,628.217957 761.231079,629.815002 
	C761.292725,635.465942 761.265747,641.118164 761.225708,646.769592 
	C761.216370,648.092224 761.206909,649.689087 759.529419,649.961853 
	C757.457764,650.298767 757.190125,648.616150 756.923340,646.628540 
z"/>
</svg>